<svg width="250" height="80" viewBox="0 0 250 80" fill="none" xmlns="http://www.w3.org/2000/svg">
<rect
        x="33.1692"
        y="5.16923"
        width="214.662"
        height="70.6615"
        rx="18.3149"
        fill="#125641"
        stroke="#26A17B"
        strokeWidth="4.33846"
    />
<path
        d="M115.967 55.519C108.369 55.519 103.636 51.0559 103.636 44.434V25.0458H108.992V43.9981C108.992 48.1498 111.524 50.8691 115.967 50.8691C120.409 50.8691 122.921 48.1498 122.921 43.9981V25.0458H128.256V44.434C128.256 51.0559 123.585 55.519 115.967 55.519ZM145.37 55.519C138.499 55.519 133.973 52.2807 133.62 46.9043L133.6 46.5929H138.727L138.768 46.842C139.163 49.416 141.799 51.0144 145.556 51.0144C149.334 51.0144 151.701 49.333 151.701 46.759V46.7382C151.701 44.4963 150.144 43.2923 146.283 42.4828L143.065 41.8185C137.17 40.5937 134.264 37.8537 134.264 33.3906V33.3699C134.285 28.0973 138.914 24.5268 145.37 24.5268C151.908 24.5268 156.185 27.9727 156.496 33.1L156.517 33.4529H151.39L151.348 33.2038C150.995 30.5883 148.691 29.0314 145.328 29.0314C141.82 29.0521 139.64 30.692 139.64 33.0792V33.1C139.64 35.2173 141.28 36.4628 144.892 37.2101L148.13 37.8744C154.358 39.1614 157.077 41.6939 157.077 46.3646V46.3853C157.077 51.9693 152.677 55.519 145.37 55.519ZM162.359 55V25.0458H173.299C182.225 25.0458 187.539 30.4429 187.539 39.9087V39.9502C187.539 49.4368 182.266 55 173.299 55H162.359ZM167.715 50.4747H172.738C178.758 50.4747 182.079 46.8005 182.079 39.971V39.9295C182.079 33.2453 178.696 29.5711 172.738 29.5711H167.715V50.4747ZM198.654 55V29.5503H189.686V25.0458H212.935V29.5503H203.989V55H198.654Z"
        fill="white"
    />
<g clipPath="url(#clip0_1565_55)">
<path
            d="M40 80C62.0914 80 80 62.0914 80 40C80 17.9086 62.0914 0 40 0C17.9086 0 0 17.9086 0 40C0 62.0914 17.9086 80 40 80Z"
            fill="#26A17B"
        />
<path
            fillRule="evenodd"
            clipRule="evenodd"
            d="M44.805 43.4578V43.4529C44.53 43.4729 43.1125 43.5579 39.95 43.5579C37.425 43.5579 35.6475 43.4829 35.0225 43.4529V43.4604C25.3025 43.0329 18.0475 41.3404 18.0475 39.3154C18.0475 37.2904 25.3025 35.6004 35.0225 35.1654V41.7753C35.6575 41.8203 37.4775 41.9279 39.9925 41.9279C43.01 41.9279 44.5225 41.8029 44.805 41.7779V35.1704C54.505 35.6029 61.7425 37.2954 61.7425 39.3154C61.7425 41.3404 54.505 43.0278 44.805 43.4578ZM44.805 34.4829V28.5679H58.34V19.5479H21.4875V28.5679H35.0225V34.4804C24.0225 34.9854 15.75 37.1654 15.75 39.7754C15.75 42.3854 24.0225 44.5629 35.0225 45.0704V64.0254H44.805V45.0653C55.7875 44.5603 64.04 42.3829 64.04 39.7754C64.04 37.1679 55.7875 34.9904 44.805 34.4829Z"
            fill="white"
        />
</g>
<defs>
<clipPath id="clip0_1565_55">
<rect width="80" height="80" fill="white" />
</clipPath>
</defs>
</svg>
