<?xml version="1.0" standalone="no"?>
<!DOCTYPE svg PUBLIC "-//W3C//DTD SVG 20010904//EN"
 "http://www.w3.org/TR/2001/REC-SVG-20010904/DTD/svg10.dtd">
<svg version="1.0" xmlns="http://www.w3.org/2000/svg"
 width="314.000000pt" height="314.000000pt" viewBox="0 0 314.000000 314.000000"
 preserveAspectRatio="xMidYMid meet">
<metadata>
Created by potrace 1.14, written by Peter Selinger 2001-2017
</metadata>
<g transform="translate(0.000000,314.000000) scale(0.100000,-0.100000)"
fill="#000000" stroke="none">
<path d="M1405 3133 c-26 -3 -153 -25 -210 -37 -136 -27 -441 -168 -543 -251
-9 -7 -46 -37 -82 -67 -277 -225 -477 -565 -546 -928 -21 -111 -26 -401 -9
-501 39 -222 63 -296 152 -479 40 -80 133 -234 152 -250 3 -3 22 -25 42 -50
139 -172 334 -323 543 -421 95 -44 281 -110 289 -102 3 2 14 0 24 -5 18 -10
49 -16 158 -29 107 -14 363 -8 465 10 676 122 1199 667 1287 1344 9 70 10 352
1 408 -84 547 -409 989 -891 1215 -217 101 -394 141 -637 145 -91 1 -178 0
-195 -2z"/>
</g>
</svg>
